<svg width="34" height="33" viewBox="0 0 34 33" fill="none" xmlns="http://www.w3.org/2000/svg">
<rect x="1" y="0.5" width="32" height="32" rx="2" fill="#3DD6DB" fill-opacity="0.15" stroke="#3DD6DB"/>
<path d="M13.3765 22.6175C11.8235 22.9445 10.4613 22.6448 10.8427 24.4429C11.2242 26.2411 12.8044 27.4399 14.3573 27.1129C15.9103 26.786 16.8911 25.0151 16.5097 23.2169C16.1282 21.4188 14.9567 22.2633 13.3765 22.6175Z" fill="#3DD6DB"/>
<path d="M13.2403 21.8275C13.3492 21.8003 13.431 21.773 13.5399 21.7458C14.0576 21.5823 14.548 21.3916 14.9567 21.0374C15.3926 20.656 15.6378 20.0839 15.7468 19.5117C16.0192 18.095 15.8285 16.5148 15.3654 15.1798C14.9839 14.09 14.4118 13.0819 13.5672 12.2918C12.9133 11.6652 12.0142 11.1475 11.0879 11.311C10.1343 11.4745 9.42598 12.3463 9.0173 13.2454C8.41792 14.6076 8.33618 16.1334 8.63588 17.5773C8.85383 18.6126 9.317 19.6207 9.83465 20.547C10.1616 21.0919 10.5975 21.6096 11.1969 21.8548C11.878 22.1272 12.5864 22.0182 13.2403 21.8275Z" fill="#3DD6DB"/>
<path d="M21.005 17.3049C19.452 17.1959 18.1443 16.2151 17.8446 18.0405C17.5449 19.8659 18.6347 21.5278 20.2149 21.773C21.7951 22.0182 23.3208 20.7377 23.5932 18.9123C23.8657 17.0869 22.5579 17.659 21.005 17.3049Z" fill="#3DD6DB"/>
<path d="M22.6398 5.86199C21.1686 5.64403 20.1333 6.70658 19.4522 7.85086C18.7166 9.04963 18.3079 10.4391 18.1989 11.8559C18.1444 12.5915 18.1989 13.3271 18.3351 14.0627C18.4714 14.6893 18.5803 15.3432 19.1252 15.7791C19.4794 16.0516 19.9153 16.1878 20.3512 16.2968C20.9779 16.4602 21.6045 16.5147 22.2584 16.5147C23.0485 16.5147 23.5389 16.215 23.9748 15.5612C24.7922 14.3624 25.2553 12.9729 25.3643 11.5289C25.446 10.1939 25.2281 8.6682 24.6287 7.44219C24.4107 7.03351 24.1383 6.62484 23.7841 6.32515C23.4299 6.07994 23.0757 5.94372 22.6398 5.86199Z" fill="#3DD6DB"/>
</svg>
