<svg width="16" height="16" viewBox="0 0 16 16" fill="none" xmlns="http://www.w3.org/2000/svg">
<path d="M7.05318 10.8352L11.5352 6.35318L10.8327 5.65068L7.05318 9.43018L5.15318 7.53018L4.45068 8.23268L7.05318 10.8352ZM8.00052 14.3327C7.12452 14.3327 6.30113 14.1665 5.53035 13.834C4.75957 13.5016 4.08913 13.0504 3.51902 12.4805C2.9489 11.9106 2.49752 11.2405 2.16485 10.47C1.83229 9.69957 1.66602 8.87641 1.66602 8.00052C1.66602 7.12452 1.83224 6.30113 2.16468 5.53035C2.49713 4.75957 2.94829 4.08913 3.51818 3.51902C4.08807 2.9489 4.75824 2.49752 5.52868 2.16485C6.29913 1.83229 7.12229 1.66602 7.99818 1.66602C8.87418 1.66602 9.69757 1.83224 10.4683 2.16468C11.2391 2.49713 11.9096 2.94829 12.4797 3.51818C13.0498 4.08807 13.5012 4.75824 13.8338 5.52868C14.1664 6.29913 14.3327 7.12229 14.3327 7.99818C14.3327 8.87418 14.1665 9.69757 13.834 10.4683C13.5016 11.2391 13.0504 11.9096 12.4805 12.4797C11.9106 13.0498 11.2405 13.5012 10.47 13.8338C9.69957 14.1664 8.87641 14.3327 8.00052 14.3327Z" fill="#017B4E"/>
</svg>
