<svg width="123" height="120" viewBox="0 0 123 120" fill="none" xmlns="http://www.w3.org/2000/svg">
<path d="M88.8505 62.1497C90.7789 62.1497 91.372 62.1497 92.8556 62.1497C101.31 62.1497 108.282 63.7811 113.919 69.4179C119.556 75.0547 122.374 82.0264 122.374 90.4813C122.374 98.6399 119.556 105.612 113.771 111.396C108.134 117.033 101.162 120 92.8556 120C83.6586 120 76.5386 117.33 71.1987 111.99C66.0067 106.65 63.337 99.3813 63.337 90.0364V62.2979H84.5486V88.5533C84.5486 91.52 84.9938 93.7449 86.477 95.5246C87.9605 97.3047 90.3337 98.4913 92.7069 98.4913C94.9322 98.4913 96.8606 97.7499 98.3437 96.1181C99.9755 94.4863 100.569 92.4096 100.569 90.1847C100.42 87.0697 98.7889 85.1414 97.3054 84.1031C93.8939 81.8781 92.2621 82.7682 88.8505 82.7682V62.1497Z" fill="#6E6E6E"/>
<path fill-rule="evenodd" clip-rule="evenodd" d="M33.5237 62.1497C31.5952 62.1497 31.0019 62.1497 29.5185 62.1497C21.0635 62.1497 14.0918 63.7811 8.45506 69.4179C2.81836 75.0547 0 82.0264 0 90.4813C0 98.6399 2.81836 105.612 8.60342 111.396C14.2401 117.033 21.2118 120 29.5185 120C38.7153 120 45.8352 117.33 51.1755 111.99C56.3671 106.65 59.0372 99.3813 59.0372 90.0364V62.2979H37.8252V88.5533C37.8252 91.52 37.3804 93.7449 35.8969 95.5246C34.4137 97.3047 32.0402 98.4913 29.6669 98.4913C27.4419 98.4913 25.5135 97.7499 24.0302 96.1181C22.3985 94.4863 21.8052 92.4096 21.8052 90.1847C21.9535 87.0697 23.5852 85.1414 25.0685 84.1031C28.4802 81.8781 30.1119 82.7682 33.5237 82.7682V62.1497Z" fill="#6E6E6E"/>
<path d="M88.8505 57.8504C90.7789 57.8504 91.372 57.8504 92.8556 57.8504C101.31 57.8504 108.282 56.2186 113.919 50.5818C119.556 44.9454 122.374 37.9737 122.374 29.5185C122.374 21.3601 119.556 14.3884 113.771 8.60336C108.134 2.96666 101.162 0 92.8556 0C83.6586 0 76.5386 2.67002 71.1987 8.01006C66.0067 13.3501 63.337 20.6185 63.337 29.9635V57.7021H84.5486V31.4468C84.5486 28.4802 84.9938 26.2552 86.477 24.4752C87.9605 22.6952 90.3337 21.5085 92.7069 21.5085C94.9322 21.5085 96.8606 22.2501 98.3437 23.8818C99.9755 25.5135 100.569 27.5902 100.569 29.8152C100.42 32.9302 98.7889 34.8587 97.3054 35.897C93.8939 38.1219 92.2621 37.2319 88.8505 37.2319V57.8504Z" fill="#6E6E6E"/>
<path d="M33.5237 57.8504C31.5952 57.8504 31.0019 57.8504 29.5185 57.8504C21.0635 57.8504 14.0918 56.2186 8.45506 50.5818C2.81836 44.9454 0 37.9737 0 29.5185C0 21.3601 2.81836 14.3884 8.60342 8.60336C14.2401 2.96666 21.2118 0 29.5185 0C38.7153 0 45.8352 2.67002 51.1755 8.01006C56.3671 13.3501 59.0372 20.6185 59.0372 29.9635V57.7021H37.8252V31.4468C37.8252 28.4802 37.3804 26.2552 35.8969 24.4752C34.4137 22.6952 32.0402 21.5085 29.6669 21.5085C27.4419 21.5085 25.5135 22.2501 24.0302 23.8818C22.3985 25.5135 21.8052 27.5902 21.8052 29.8152C21.9535 32.9302 23.5852 34.8587 25.0685 35.897C28.4802 38.1219 30.1119 37.2319 33.5237 37.2319V57.8504Z" fill="#3894B5"/>
</svg>
