<svg width="32" height="38" viewBox="0 0 32 38" fill="none" xmlns="http://www.w3.org/2000/svg">
<path fill-rule="evenodd" clip-rule="evenodd" d="M0 7.7104C0 9.97682 0.398365 11.2763 1.68291 12.9387C1.76443 13.0442 1.80131 13.0714 1.89407 13.1706L2.57996 13.8581C2.71604 13.9862 2.94987 14.1506 3.10907 14.2593C3.4961 14.5233 3.85434 14.7013 4.30325 14.8815C5.78671 15.4767 7.13321 15.4194 8.77106 15.4194V10.1028C7.78425 10.1028 7.40654 10.266 6.59057 9.7583C5.35716 8.99086 5.34952 6.98784 6.79144 6.21783C7.68573 5.74028 8.80483 6.03074 9.39892 6.77235C9.77118 7.23698 9.87856 7.90783 9.87856 8.72943V15.4194H15.4602V8.28636C15.4602 5.68209 14.6687 3.181 12.5368 1.68464L11.6653 1.13857C11.5426 1.0726 11.4547 1.05317 11.3256 0.990925C10.0513 0.375741 8.7751 0.311523 7.30922 0.311523C5.31739 0.311523 3.56946 1.23853 2.22599 2.58218C0.883222 3.92506 0 5.71835 0 7.7104Z" fill="#3793B5"/>
<path fill-rule="evenodd" clip-rule="evenodd" d="M16.5229 8.28636V15.4194H22.1046V8.72943C22.1046 7.91938 22.2183 7.22903 22.5842 6.77235C23.4223 5.72625 25.0468 5.7555 25.7885 6.68423C26.1644 7.15477 26.3533 7.59779 26.2694 8.37549C26.1729 9.27093 25.3521 9.9591 24.6563 10.0853C24.2618 10.1568 23.7092 10.1028 23.2121 10.1028V15.4194C25.2946 15.4194 27.1007 15.4535 28.8474 14.277C29.0132 14.1653 29.2051 14.0291 29.3567 13.9001L30.0471 13.2173C30.9247 12.1734 31.4447 11.412 31.7793 9.94334C32.2193 8.01299 31.9809 5.79731 30.9837 4.14667C29.6715 1.97448 27.2875 0.311523 24.6739 0.311523C22.5151 0.311523 21.0959 0.526751 19.4463 1.68464C19.0412 1.96898 18.7882 2.23597 18.4385 2.58174C17.0585 3.94636 16.5229 6.3007 16.5229 8.28636Z" fill="#5D6A85"/>
<path fill-rule="evenodd" clip-rule="evenodd" d="M0 23.6604C0 26.0697 0.622736 27.7611 2.24813 29.3868C2.82467 29.9634 3.6778 30.632 4.4485 30.952C5.6873 31.4662 6.45654 31.6352 7.88511 31.6352C10.2326 31.6352 12.5328 30.7698 13.9037 28.9266C15.039 27.4002 15.4602 25.7299 15.4602 23.6604V16.5274H9.87856V23.2174C9.87856 24.3747 9.67083 25.0577 8.9812 25.5541C7.36584 26.7168 5.19471 25.2079 5.77569 23.2342C5.90356 22.7997 6.14627 22.5265 6.45644 22.2758C7.25586 21.6297 7.85163 21.8439 8.77106 21.8439V16.5274C5.99005 16.5274 4.14636 16.5015 2.04837 18.5761C0.78895 19.8214 0 21.8252 0 23.6604Z" fill="#5D6A85"/>
<path fill-rule="evenodd" clip-rule="evenodd" d="M16.5229 23.6602C16.5229 24.9356 16.7024 26.039 17.0374 27.0002C17.3732 27.9637 18.1798 29.2716 19.0033 29.9076C19.1882 30.0503 19.3437 30.1947 19.5526 30.3328C21.4084 31.5594 23.8824 31.925 26.1107 31.4327C27.2842 31.1735 28.306 30.6334 29.2061 29.8766C29.4156 29.7003 29.5222 29.5994 29.7129 29.4087C32.0691 27.0521 32.5733 23.7454 31.3698 20.7292C30.7337 19.1348 29.3803 17.8352 27.8492 17.1173C27.4808 16.9446 26.9194 16.7944 26.4868 16.7077C25.2964 16.4694 24.4266 16.5272 23.2121 16.5272V21.8437C24.0565 21.8437 24.6854 21.6172 25.5026 22.2554C25.8081 22.494 26.0667 22.7858 26.1974 23.1998C26.3457 23.6699 26.3145 24.1491 26.1757 24.5862C26.0772 24.8963 25.9345 25.0947 25.7108 25.3175C25.3406 25.686 24.9122 25.9449 24.2727 25.9621C23.8898 25.9724 23.3452 25.7923 23.0275 25.5726C22.3257 25.0875 22.1046 24.3832 22.1046 23.2172V16.5272H16.5229V23.6602Z" fill="#5D6A85"/>
<path d="M8.67778 36.6445L8.52778 36.0737H7.53819L7.38403 36.6445H6.47986L7.47361 33.5862H8.57153L9.57778 36.6445H8.67778ZM8.35694 35.3987L8.22569 34.8987C8.2118 34.8445 8.19167 34.7674 8.16528 34.6674C8.13889 34.5661 8.1125 34.4619 8.08611 34.3549C8.06111 34.2466 8.04167 34.1577 8.02778 34.0883C8.01528 34.1577 7.99722 34.2438 7.97361 34.3466C7.95139 34.448 7.92778 34.5487 7.90278 34.6487C7.87917 34.7487 7.85833 34.832 7.84028 34.8987L7.70903 35.3987H8.35694ZM11.8139 36.6445L11.191 34.4508H11.1722C11.1778 34.5077 11.1833 34.5848 11.1889 34.682C11.1958 34.7793 11.2021 34.8841 11.2076 34.9966C11.2132 35.1091 11.216 35.2174 11.216 35.3216V36.6445H10.4868V33.5987H11.5826L12.2181 35.7612H12.2347L12.8576 33.5987H13.9556V36.6445H13.1993V35.3091C13.1993 35.2133 13.2007 35.1105 13.2035 35.0008C13.2076 34.8897 13.2118 34.7855 13.216 34.6883C13.2215 34.5897 13.2264 34.5119 13.2306 34.4549H13.2118L12.5972 36.6445H11.8139ZM17.775 35.057C17.775 35.4112 17.709 35.7056 17.5771 35.9404C17.4451 36.1751 17.259 36.3515 17.0187 36.4695C16.7799 36.5862 16.4986 36.6445 16.175 36.6445H15.1896V33.5987H16.2437C16.5715 33.5987 16.8493 33.6549 17.0771 33.7674C17.3049 33.8799 17.4778 34.0445 17.5958 34.2612C17.7153 34.4779 17.775 34.7431 17.775 35.057ZM16.9208 35.0862C16.9208 34.9015 16.8958 34.7487 16.8458 34.6279C16.7972 34.5056 16.7236 34.4147 16.625 34.3549C16.5264 34.2938 16.4021 34.2633 16.2521 34.2633H16.0125V35.9695H16.1958C16.4458 35.9695 16.6292 35.8973 16.7458 35.7529C16.8625 35.607 16.9208 35.3848 16.9208 35.0862ZM21.5111 36.6445H20.684V35.4029H19.7278V36.6445H18.9007V33.5987H19.7278V34.7279H20.684V33.5987H21.5111V36.6445ZM24.6181 36.6445L24.4681 36.0737H23.4785L23.3243 36.6445H22.4201L23.4139 33.5862H24.5118L25.5181 36.6445H24.6181ZM24.2972 35.3987L24.166 34.8987C24.1521 34.8445 24.1319 34.7674 24.1056 34.6674C24.0792 34.5661 24.0528 34.4619 24.0264 34.3549C24.0014 34.2466 23.9819 34.1577 23.9681 34.0883C23.9556 34.1577 23.9375 34.2438 23.9139 34.3466C23.8917 34.448 23.8681 34.5487 23.8431 34.6487C23.8194 34.7487 23.7986 34.832 23.7806 34.8987L23.6493 35.3987H24.2972Z" fill="#5D6A85"/>
</svg>
